# xmcd
# 
# Track frame offsets:
#     150
#     21646
#     40230
#     58871
#     79007
#     100732
#     119771
#     138280
#     162637
#     180837
#     206692
# 
# Disc length: 2928
# 
# Revision: 3
# Processed by: cddbd v1.5.2PL0 Copyright (c) Steve Scherf et al.
# Submitted via: fre:ac v1.0.27
# 
DISCID=9a0b6e0b
DTITLE=Jars Of Clay - The Shelter
DYEAR=2010
DGENRE=Folk-influenced American Rock
TTITLE0=Small Rebellions (feat. Brandon Heath)
TTITLE1=Call My Name (feat. Thad Cockrell and Audrey Assad)
TTITLE2=We Will Follow (feat. Gungor)
TTITLE3=Eyes Wide Open (feat. Mac Powell, Derek Webb and Burlap To Cashmere)
TTITLE4=Shelter (feat. Brandon Heath, TobyMac and Audrey Assad)
TTITLE5=Out of My Hands (feat. Mike Donehey and Leigh Nash)
TTITLE6=No Greater Love
TTITLE7=Run in the Night (Psalm 27) (feat. Thad Cockrell)
TTITLE8=Lay It Down (feat. David Crowder and Dawn Michele)
TTITLE9=Love Will Find Us (feat. Sara Groves and Matt Maher)
TTITLE10=Benediction (feat. Amy Grant)
EXTD=
EXTT0=
EXTT1=
EXTT2=
EXTT3=
EXTT4=
EXTT5=
EXTT6=
EXTT7=
EXTT8=
EXTT9=
EXTT10=
PLAYORDER=
